<svg width="18" height="18" viewBox="0 0 18 18" fill="none" xmlns="http://www.w3.org/2000/svg">
<path d="M10.4999 1.5H4.49988C3.67488 1.5 3.00738 2.175 3.00738 3L2.99988 15C2.99988 15.825 3.66738 16.5 4.49238 16.5H13.4999C14.3249 16.5 14.9999 15.825 14.9999 15V6L10.4999 1.5ZM11.2499 9H8.24988V9.75H10.4999C10.9124 9.75 11.2499 10.0875 11.2499 10.5V12.75C11.2499 13.1625 10.9124 13.5 10.4999 13.5H9.74988V14.25H8.24988V13.5H6.74988V12H9.74988V11.25H7.49988C7.08738 11.25 6.74988 10.9125 6.74988 10.5V8.25C6.74988 7.8375 7.08738 7.5 7.49988 7.5H8.24988V6.75H9.74988V7.5H11.2499V9ZM9.74988 6V2.625L13.1249 6H9.74988Z" fill="#333333"/>
</svg>
