<svg width="18" height="18" viewBox="0 0 18 18" fill="none" xmlns="http://www.w3.org/2000/svg">
<path d="M14.0625 3.9148H12.375C12.375 2.1247 10.8647 0.674805 9 0.674805C7.13531 0.674805 5.625 2.1247 5.625 3.9148H3.9375C3.00937 3.9148 2.25 4.6438 2.25 5.5348V15.2548C2.25 16.1458 3.00937 16.8748 3.9375 16.8748H14.0625C14.9906 16.8748 15.75 16.1458 15.75 15.2548V5.5348C15.75 4.6438 14.9906 3.9148 14.0625 3.9148ZM7.3125 7.1548C7.3125 7.6003 6.93281 7.9648 6.46875 7.9648C6.00469 7.9648 5.625 7.6003 5.625 7.1548V5.5348H7.3125V7.1548ZM9 2.2948C9.92812 2.2948 10.6875 3.0238 10.6875 3.9148H7.3125C7.3125 3.0238 8.07188 2.2948 9 2.2948ZM12.375 7.1548C12.375 7.6003 11.9953 7.9648 11.5312 7.9648C11.0672 7.9648 10.6875 7.6003 10.6875 7.1548V5.5348H12.375V7.1548Z" fill="#5B5B5B"/>
</svg>
