<svg width="18" height="18" viewBox="0 0 18 18" fill="none" xmlns="http://www.w3.org/2000/svg">
<path d="M11.7223 17.9999H0.517606C0.380377 17.9997 0.248816 17.9425 0.15178 17.8408C0.0547442 17.7391 0.000158266 17.6012 0 17.4573V6.54255C0.000158266 6.39871 0.0547442 6.2608 0.15178 6.15909C0.248816 6.05738 0.380377 6.00017 0.517606 6H11.7223C11.8595 6.00017 11.991 6.05738 12.0881 6.15909C12.1851 6.2608 12.2397 6.39871 12.2399 6.54255V17.4573C12.2397 17.6012 12.1851 17.7391 12.0881 17.8408C11.991 17.9425 11.8595 17.9997 11.7223 17.9999Z" fill="#6C63FF"/>
<path d="M5.60897 17.9999H7.35034H7.91964V17.4555V5.79436C7.91947 5.65004 7.85943 5.51167 7.75271 5.40962C7.64598 5.30757 7.50128 5.25017 7.35034 5.25H5.60897C5.45804 5.25017 5.31334 5.30757 5.20661 5.40962C5.09988 5.51167 5.03985 5.65004 5.03967 5.79436V17.4555C5.03985 17.5998 5.03969 17.9999 5.03969 17.9999C5.03969 17.9999 5.45804 17.9997 5.60897 17.9999Z" fill="#3F3D56"/>
<path d="M15.118 4.59852C15.0507 5.84115 13.5585 6.74995 13.5585 6.74995C13.5585 6.74995 12.1755 5.64405 12.2428 4.40143C12.3101 3.1588 13.8023 2.25 13.8023 2.25C13.8023 2.25 15.1853 3.3559 15.118 4.59852Z" fill="#3F3D56"/>
<path d="M15.3754 8.24774C13.9836 8.18121 12.9601 6.62953 12.9601 6.62953C12.9601 6.62953 14.193 5.1857 15.5848 5.25223C16.9765 5.31876 18 6.87044 18 6.87044C18 6.87044 16.7671 8.31426 15.3754 8.24774Z" fill="#3F3D56"/>
<path d="M16.2174 14.2498C16.135 14.25 16.0536 14.2296 15.9798 14.1901C15.906 14.1506 15.8416 14.0932 15.7919 14.0223L7.3079 1.9437C7.26562 1.88351 7.23475 1.81493 7.21704 1.74187C7.19933 1.66881 7.19514 1.5927 7.2047 1.51789C7.21426 1.44309 7.23739 1.37104 7.27276 1.30588C7.30813 1.24071 7.35506 1.18369 7.41086 1.13809L8.6606 0.116706C8.71639 0.0710967 8.77998 0.0377926 8.84771 0.018693C8.91544 -0.000406601 8.98599 -0.00492611 9.05535 0.00539309C9.1247 0.0157123 9.19148 0.0406674 9.25189 0.0788338C9.3123 0.117 9.36515 0.167629 9.40741 0.227829L17.8914 12.3064C17.9337 12.3666 17.9645 12.4351 17.9822 12.5082C18 12.5813 18.0042 12.6574 17.9946 12.7322C17.985 12.807 17.9619 12.879 17.9265 12.9442C17.8912 13.0094 17.8442 13.0664 17.7884 13.112L16.5387 14.1334C16.4463 14.2091 16.3334 14.25 16.2174 14.2498Z" fill="#6C63FF"/>
<path d="M12.7793 5.04588L10.5922 6.77197L12.2493 9.05014L14.4363 7.32405L12.7793 5.04588Z" fill="#3F3D56"/>
</svg>
