<svg width="18" height="18" viewBox="0 0 18 18" fill="none" xmlns="http://www.w3.org/2000/svg">
<g opacity="0.7">
<path d="M14.625 2.625L13.5 1.5L12.375 2.625L11.25 1.5L10.125 2.625L9 1.5L7.875 2.625L6.75 1.5L5.625 2.625L4.5 1.5V12H2.25V14.25C2.25 15.495 3.255 16.5 4.5 16.5H13.5C14.745 16.5 15.75 15.495 15.75 14.25V1.5L14.625 2.625ZM14.25 14.25C14.25 14.6625 13.9125 15 13.5 15C13.0875 15 12.75 14.6625 12.75 14.25V12H6V3.75H14.25V14.25Z" fill="black"/>
<path d="M11.25 5.25H6.75V6.75H11.25V5.25Z" fill="black"/>
<path d="M13.5001 5.25H12.0001V6.75H13.5001V5.25Z" fill="black"/>
<path d="M11.25 7.5H6.75V9H11.25V7.5Z" fill="black"/>
<path d="M13.5001 7.5H12.0001V9H13.5001V7.5Z" fill="black"/>
</g>
</svg>
